<mxfile host="app.diagrams.net" modified="2021-02-16T21:39:41.275Z" agent="5.0 (Windows NT 10.0; Win64; x64) AppleWebKit/537.36 (KHTML, like Gecko) Chrome/88.0.4324.150 Safari/537.36" etag="E5yT2xveyyEhBddZu8PJ" version="14.3.2" type="github">
  <diagram id="zLj_YL875E4zyg2O6YH1" name="Page-1">
    <mxGraphModel dx="1410" dy="745" grid="1" gridSize="10" guides="1" tooltips="1" connect="1" arrows="1" fold="1" page="1" pageScale="1" pageWidth="827" pageHeight="1169" math="0" shadow="0">
      <root>
        <mxCell id="0" />
        <mxCell id="1" parent="0" />
        <mxCell id="pQ3tocSqvHri-Dk9f1s9-7" value="" style="rounded=0;whiteSpace=wrap;html=1;" vertex="1" parent="1">
          <mxGeometry x="20" y="310" width="270" height="170" as="geometry" />
        </mxCell>
        <mxCell id="pQ3tocSqvHri-Dk9f1s9-1" value="IMU&lt;br&gt;Accelerometer/&lt;br&gt;Compass/Gyro" style="rounded=0;whiteSpace=wrap;html=1;" vertex="1" parent="1">
          <mxGeometry x="30" y="340" width="120" height="60" as="geometry" />
        </mxCell>
        <mxCell id="pQ3tocSqvHri-Dk9f1s9-3" value="Flight Controller" style="text;html=1;strokeColor=none;fillColor=none;align=center;verticalAlign=middle;whiteSpace=wrap;rounded=0;" vertex="1" parent="1">
          <mxGeometry x="60" y="310" width="190" height="30" as="geometry" />
        </mxCell>
        <mxCell id="pQ3tocSqvHri-Dk9f1s9-4" value="GPS" style="rounded=0;whiteSpace=wrap;html=1;" vertex="1" parent="1">
          <mxGeometry x="160" y="340" width="120" height="60" as="geometry" />
        </mxCell>
        <mxCell id="pQ3tocSqvHri-Dk9f1s9-6" value="Camera Sensor" style="rounded=0;whiteSpace=wrap;html=1;" vertex="1" parent="1">
          <mxGeometry x="30" y="410" width="120" height="60" as="geometry" />
        </mxCell>
        <mxCell id="pQ3tocSqvHri-Dk9f1s9-10" value="" style="rounded=0;whiteSpace=wrap;html=1;" vertex="1" parent="1">
          <mxGeometry x="430" y="310" width="400" height="170" as="geometry" />
        </mxCell>
        <mxCell id="pQ3tocSqvHri-Dk9f1s9-11" value="Intelligent Landing Manager" style="text;html=1;strokeColor=none;fillColor=none;align=center;verticalAlign=middle;whiteSpace=wrap;rounded=0;" vertex="1" parent="1">
          <mxGeometry x="535" y="310" width="190" height="30" as="geometry" />
        </mxCell>
        <mxCell id="pQ3tocSqvHri-Dk9f1s9-12" value="Object Classifier" style="rounded=0;whiteSpace=wrap;html=1;" vertex="1" parent="1">
          <mxGeometry x="440" y="340" width="120" height="60" as="geometry" />
        </mxCell>
        <mxCell id="pQ3tocSqvHri-Dk9f1s9-13" value="Track Association" style="rounded=0;whiteSpace=wrap;html=1;" vertex="1" parent="1">
          <mxGeometry x="440" y="410" width="120" height="60" as="geometry" />
        </mxCell>
        <mxCell id="pQ3tocSqvHri-Dk9f1s9-14" value="Data Fusion" style="rounded=0;whiteSpace=wrap;html=1;" vertex="1" parent="1">
          <mxGeometry x="570" y="340" width="120" height="60" as="geometry" />
        </mxCell>
        <mxCell id="pQ3tocSqvHri-Dk9f1s9-15" value="Tracking" style="rounded=0;whiteSpace=wrap;html=1;" vertex="1" parent="1">
          <mxGeometry x="570" y="410" width="120" height="60" as="geometry" />
        </mxCell>
        <mxCell id="pQ3tocSqvHri-Dk9f1s9-16" value="Object Avoidance" style="rounded=0;whiteSpace=wrap;html=1;" vertex="1" parent="1">
          <mxGeometry x="700" y="340" width="120" height="60" as="geometry" />
        </mxCell>
        <mxCell id="pQ3tocSqvHri-Dk9f1s9-17" value="Perception Manager" style="rounded=0;whiteSpace=wrap;html=1;" vertex="1" parent="1">
          <mxGeometry x="700" y="410" width="120" height="60" as="geometry" />
        </mxCell>
        <mxCell id="pQ3tocSqvHri-Dk9f1s9-18" value="&lt;div style=&quot;text-align: left&quot;&gt;&lt;ol&gt;&lt;li&gt;&lt;span&gt;Identify Landing Site&lt;/span&gt;&lt;/li&gt;&lt;li&gt;&lt;span&gt;Check if OK to land&lt;/span&gt;&lt;/li&gt;&lt;li&gt;&lt;span&gt;Initiate descent&lt;/span&gt;&lt;/li&gt;&lt;li&gt;&lt;span&gt;Continuous poll of OK to land status&lt;/span&gt;&lt;/li&gt;&lt;/ol&gt;&lt;/div&gt;" style="text;html=1;strokeColor=none;fillColor=none;align=center;verticalAlign=middle;whiteSpace=wrap;rounded=0;" vertex="1" parent="1">
          <mxGeometry x="40" y="610" width="300" height="70" as="geometry" />
        </mxCell>
        <mxCell id="pQ3tocSqvHri-Dk9f1s9-21" value="" style="edgeStyle=orthogonalEdgeStyle;rounded=0;orthogonalLoop=1;jettySize=auto;html=1;" edge="1" parent="1" source="pQ3tocSqvHri-Dk9f1s9-19" target="pQ3tocSqvHri-Dk9f1s9-20">
          <mxGeometry relative="1" as="geometry" />
        </mxCell>
        <mxCell id="pQ3tocSqvHri-Dk9f1s9-24" value="" style="edgeStyle=orthogonalEdgeStyle;rounded=0;orthogonalLoop=1;jettySize=auto;html=1;" edge="1" parent="1" source="pQ3tocSqvHri-Dk9f1s9-19" target="pQ3tocSqvHri-Dk9f1s9-23">
          <mxGeometry relative="1" as="geometry" />
        </mxCell>
        <mxCell id="pQ3tocSqvHri-Dk9f1s9-19" value="Identify Landing Site&lt;br&gt;Can drone identify landing marker" style="rounded=0;whiteSpace=wrap;html=1;" vertex="1" parent="1">
          <mxGeometry x="95" y="720" width="120" height="60" as="geometry" />
        </mxCell>
        <mxCell id="pQ3tocSqvHri-Dk9f1s9-33" value="" style="edgeStyle=orthogonalEdgeStyle;rounded=0;orthogonalLoop=1;jettySize=auto;html=1;" edge="1" parent="1" source="pQ3tocSqvHri-Dk9f1s9-20" target="pQ3tocSqvHri-Dk9f1s9-26">
          <mxGeometry relative="1" as="geometry" />
        </mxCell>
        <mxCell id="pQ3tocSqvHri-Dk9f1s9-20" value="Assess Drone Stability" style="rounded=0;whiteSpace=wrap;html=1;" vertex="1" parent="1">
          <mxGeometry x="320" y="720" width="120" height="60" as="geometry" />
        </mxCell>
        <mxCell id="pQ3tocSqvHri-Dk9f1s9-22" value="Yes" style="text;html=1;align=center;verticalAlign=middle;resizable=0;points=[];autosize=1;" vertex="1" parent="1">
          <mxGeometry x="240" y="730" width="40" height="20" as="geometry" />
        </mxCell>
        <mxCell id="pQ3tocSqvHri-Dk9f1s9-32" style="edgeStyle=orthogonalEdgeStyle;rounded=0;orthogonalLoop=1;jettySize=auto;html=1;exitX=0;exitY=0.5;exitDx=0;exitDy=0;entryX=0;entryY=0.5;entryDx=0;entryDy=0;" edge="1" parent="1" source="pQ3tocSqvHri-Dk9f1s9-23" target="pQ3tocSqvHri-Dk9f1s9-19">
          <mxGeometry relative="1" as="geometry" />
        </mxCell>
        <mxCell id="pQ3tocSqvHri-Dk9f1s9-23" value="Circle area for (n) minutes&amp;nbsp;" style="whiteSpace=wrap;html=1;rounded=0;" vertex="1" parent="1">
          <mxGeometry x="95" y="860" width="120" height="60" as="geometry" />
        </mxCell>
        <mxCell id="pQ3tocSqvHri-Dk9f1s9-25" value="No" style="text;html=1;align=center;verticalAlign=middle;resizable=0;points=[];autosize=1;" vertex="1" parent="1">
          <mxGeometry x="155" y="810" width="30" height="20" as="geometry" />
        </mxCell>
        <mxCell id="pQ3tocSqvHri-Dk9f1s9-34" value="" style="edgeStyle=orthogonalEdgeStyle;rounded=0;orthogonalLoop=1;jettySize=auto;html=1;" edge="1" parent="1" source="pQ3tocSqvHri-Dk9f1s9-26" target="pQ3tocSqvHri-Dk9f1s9-29">
          <mxGeometry relative="1" as="geometry" />
        </mxCell>
        <mxCell id="pQ3tocSqvHri-Dk9f1s9-26" value="Check that the landing site is clear of objects to avoid i.e. humans" style="rounded=0;whiteSpace=wrap;html=1;" vertex="1" parent="1">
          <mxGeometry x="490" y="720" width="120" height="60" as="geometry" />
        </mxCell>
        <mxCell id="pQ3tocSqvHri-Dk9f1s9-27" value="" style="endArrow=classic;html=1;entryX=0.5;entryY=0;entryDx=0;entryDy=0;exitX=0;exitY=0.5;exitDx=0;exitDy=0;" edge="1" parent="1" source="pQ3tocSqvHri-Dk9f1s9-28" target="pQ3tocSqvHri-Dk9f1s9-20">
          <mxGeometry width="50" height="50" relative="1" as="geometry">
            <mxPoint x="470" y="610" as="sourcePoint" />
            <mxPoint x="440" y="840" as="targetPoint" />
            <Array as="points">
              <mxPoint x="380" y="585" />
            </Array>
          </mxGeometry>
        </mxCell>
        <mxCell id="pQ3tocSqvHri-Dk9f1s9-28" value="&lt;h1&gt;Drone Stability&lt;/h1&gt;&lt;p&gt;Are we able to maintain a stable position based from the drone sensors.&amp;nbsp;&lt;/p&gt;&lt;p&gt;If drone target position is deviating from target by factor of N, then abort landing&lt;/p&gt;" style="text;html=1;strokeColor=#d79b00;fillColor=#ffe6cc;spacing=5;spacingTop=-20;whiteSpace=wrap;overflow=hidden;rounded=0;" vertex="1" parent="1">
          <mxGeometry x="475" y="510" width="190" height="150" as="geometry" />
        </mxCell>
        <mxCell id="pQ3tocSqvHri-Dk9f1s9-35" value="" style="edgeStyle=orthogonalEdgeStyle;rounded=0;orthogonalLoop=1;jettySize=auto;html=1;" edge="1" parent="1" source="pQ3tocSqvHri-Dk9f1s9-29" target="pQ3tocSqvHri-Dk9f1s9-30">
          <mxGeometry relative="1" as="geometry" />
        </mxCell>
        <mxCell id="pQ3tocSqvHri-Dk9f1s9-29" value="Initiate Ladning Process" style="rounded=0;whiteSpace=wrap;html=1;" vertex="1" parent="1">
          <mxGeometry x="655" y="720" width="120" height="60" as="geometry" />
        </mxCell>
        <mxCell id="pQ3tocSqvHri-Dk9f1s9-30" value="Check perception system status" style="rounded=0;whiteSpace=wrap;html=1;" vertex="1" parent="1">
          <mxGeometry x="820" y="720" width="120" height="60" as="geometry" />
        </mxCell>
        <mxCell id="pQ3tocSqvHri-Dk9f1s9-36" value="" style="endArrow=classic;html=1;dashed=1;entryX=0.5;entryY=1;entryDx=0;entryDy=0;exitX=0;exitY=0.25;exitDx=0;exitDy=0;" edge="1" parent="1" source="pQ3tocSqvHri-Dk9f1s9-28" target="pQ3tocSqvHri-Dk9f1s9-7">
          <mxGeometry width="50" height="50" relative="1" as="geometry">
            <mxPoint x="390" y="600" as="sourcePoint" />
            <mxPoint x="280" y="530" as="targetPoint" />
            <Array as="points">
              <mxPoint x="155" y="548" />
            </Array>
          </mxGeometry>
        </mxCell>
        <mxCell id="pQ3tocSqvHri-Dk9f1s9-37" value="" style="endArrow=classic;html=1;dashed=1;entryX=0;entryY=0.75;entryDx=0;entryDy=0;exitX=0;exitY=0.25;exitDx=0;exitDy=0;" edge="1" parent="1" source="pQ3tocSqvHri-Dk9f1s9-28" target="pQ3tocSqvHri-Dk9f1s9-10">
          <mxGeometry width="50" height="50" relative="1" as="geometry">
            <mxPoint x="420" y="577.5" as="sourcePoint" />
            <mxPoint x="100" y="510" as="targetPoint" />
            <Array as="points">
              <mxPoint x="370" y="548" />
              <mxPoint x="370" y="438" />
            </Array>
          </mxGeometry>
        </mxCell>
        <mxCell id="pQ3tocSqvHri-Dk9f1s9-38" value="" style="endArrow=classic;html=1;entryX=0.5;entryY=1;entryDx=0;entryDy=0;" edge="1" parent="1" target="pQ3tocSqvHri-Dk9f1s9-26">
          <mxGeometry width="50" height="50" relative="1" as="geometry">
            <mxPoint x="550" y="880" as="sourcePoint" />
            <mxPoint x="560" y="860" as="targetPoint" />
          </mxGeometry>
        </mxCell>
        <mxCell id="pQ3tocSqvHri-Dk9f1s9-39" value="&lt;h1&gt;&lt;span&gt;Object Detection&lt;/span&gt;&lt;/h1&gt;&lt;div&gt;&lt;span&gt;We need an object detector that can identify the ladning marker, and landing hazards such as humans.&lt;/span&gt;&lt;/div&gt;&lt;div&gt;&lt;span&gt;&lt;br&gt;&lt;/span&gt;&lt;/div&gt;&lt;div&gt;&lt;span&gt;Consult with existing regulation to determine exact conditions that should be satisfied when operating drones in public spaces.&lt;/span&gt;&lt;/div&gt;" style="text;html=1;strokeColor=#d79b00;fillColor=#ffe6cc;spacing=5;spacingTop=-20;whiteSpace=wrap;overflow=hidden;rounded=0;" vertex="1" parent="1">
          <mxGeometry x="440" y="880" width="235" height="170" as="geometry" />
        </mxCell>
      </root>
    </mxGraphModel>
  </diagram>
</mxfile>
